<svg xmlns="http://www.w3.org/2000/svg" xmlns:xlink="http://www.w3.org/1999/xlink" width="1000" height="380" viewBox="0 0 1000 380" fill="none" role="img" aria-label="Matheus Pavaneli — Senior Software Engineer">
  <defs>
    <linearGradient id="thread" x1="0" y1="0" x2="0" y2="1" gradientUnits="userSpaceOnUse">
      <stop offset="0" stop-color="#f4f6f9"/>
      <stop offset=".5" stop-color="#a2a8b2"/>
      <stop offset="1" stop-color="#565b64"/>
    </linearGradient>
    <radialGradient id="halo" cx="50%" cy="50%" r="50%">
      <stop offset="0" stop-color="#141821" stop-opacity=".9"/>
      <stop offset="1" stop-color="#060607" stop-opacity="0"/>
    </radialGradient>
    <filter id="soft" x="-60%" y="-60%" width="220%" height="220%">
      <feGaussianBlur stdDeviation="3.4"/>
    </filter>
    <filter id="tip" x="-300%" y="-300%" width="700%" height="700%">
      <feGaussianBlur stdDeviation="2.6" result="b"/>
      <feMerge><feMergeNode in="b"/><feMergeNode in="SourceGraphic"/></feMerge>
    </filter>
    <style>
      .mono{font-family:'SFMono-Regular','Consolas','Liberation Mono','Courier New',monospace;}
      .serif{font-family:'Iowan Old Style','Palatino Linotype','Georgia','Times New Roman',serif;}
      .draw{stroke-dasharray:20720;stroke-dashoffset:20720;animation:draw 5.5s cubic-bezier(.4,0,.15,1) .4s forwards;}
      @keyframes draw{to{stroke-dashoffset:0}}
      .fade{opacity:0;animation:fade 1.4s ease forwards;}
      .f1{animation-delay:2.9s}.f2{animation-delay:3.25s}.f3{animation-delay:3.7s}.f4{animation-delay:4.15s}.f5{animation-delay:4.6s}
      @keyframes fade{to{opacity:1}}
      .rule{stroke-dasharray:210;stroke-dashoffset:210;animation:rule 1.1s ease 3.5s forwards;}
      @keyframes rule{to{stroke-dashoffset:0}}
      .caret{animation:blink 1.15s steps(1) infinite;animation-delay:5s;opacity:0}
      @keyframes blink{0%,49%{opacity:1}50%,100%{opacity:0}}
      .glow{opacity:0;animation:appear .01s linear 5.6s forwards}
      @keyframes appear{to{opacity:1}}
    </style>
  </defs>

  <rect width="1000" height="380" fill="#060607"/>
  <ellipse cx="210" cy="190" rx="230" ry="210" fill="url(#halo)"/>

  <!-- harmonograph thread -->
  <path id="curve" d="M254.7 327.9 L266.8 329.9 L278.2 330 L288.9 328.3 L298.8 324.8 L307.9 319.6 L316.1 312.7 L323.3 304.4 L329.6 294.7 L334.8 283.7 L339 271.7 L342.2 258.8 L344.3 245.2 L345.5 231.2 L345.6 216.8 L344.8 202.4 L343 188.1 L340.5 174.1 L337 160.7 L332.9 148 L328.1 136.1 L322.6 125.3 L316.7 115.7 L310.2 107.4 L303.4 100.5 L296.3 95 L288.9 91.1 L281.4 88.8 L273.8 88.1 L266.1 88.9 L258.5 91.2 L251 95.1 L243.6 100.3 L236.3 106.8 L229.3 114.5 L222.6 123.2 L216.1 132.7 L209.9 143 L204 153.9 L198.4 165.1 L193.2 176.4 L188.3 187.8 L183.7 198.9 L179.4 209.7 L175.5 220 L171.8 229.5 L168.3 238.1 L165.1 245.7 L162.2 252.2 L159.5 257.5 L156.9 261.4 L154.6 264 L152.4 265.2 L150.4 264.9 L148.5 263.1 L146.8 260 L145.2 255.5 L143.8 249.7 L142.5 242.7 L141.4 234.7 L140.4 225.7 L139.7 215.8 L139.2 205.3 L138.9 194.3 L138.9 183.1 L139.1 171.6 L139.7 160.3 L140.6 149.2 L141.9 138.5 L143.7 128.4 L145.8 119.1 L148.4 110.7 L151.6 103.4 L155.2 97.4 L159.3 92.6 L163.9 89.3 L169.1 87.4 L174.9 87.1 L181.1 88.4 L187.9 91.3 L195.1 95.7 L202.8 101.6 L210.9 109 L219.4 117.8 L228.3 127.8 L237.4 138.9 L246.7 151 L256.1 164 L265.6 177.6 L275.1 191.6 L284.4 205.9 L293.6 220.3 L302.5 234.6 L311.1 248.5 L319.2 261.8 L326.7 274.4 L333.6 286.1 L339.8 296.7 L345.2 306 L349.7 313.9 L353.3 320.3 L355.8 325 L357.4 328.1 L357.8 329.3 L357.2 328.7 L355.4 326.3 L352.4 322 L348.3 316 L343.1 308.2 L336.7 298.8 L329.3 287.9 L320.8 275.6 L311.4 262.1 L301.1 247.4 L289.9 231.9 L278.1 215.8 L265.6 199.1 L252.5 182.1 L239.1 165.2 L225.4 148.3 L211.5 131.9 L197.5 116.1 L183.7 101.1 L170 87.1 L156.7 74.4 L143.9 62.9 L131.6 53 L120.1 44.8 L109.3 38.3 L99.5 33.6 L90.6 30.8 L82.8 30 L76.2 31.1 L70.8 34.2 L66.7 39.1 L63.9 45.9 L62.3 54.3 L62.2 64.5 L63.3 76 L65.8 89 L69.5 103 L74.5 118.1 L80.7 133.9 L87.9 150.3 L96.3 167 L105.6 183.8 L115.8 200.6 L126.7 217 L138.3 233 L150.4 248.2 L163 262.4 L175.8 275.6 L188.9 287.6 L202 298.1 L215.1 307.1 L228 314.5 L240.6 320.1 L252.9 324 L264.6 326.1 L275.8 326.4 L286.3 324.8 L296 321.6 L304.9 316.6 L313 310.1 L320.1 302.1 L326.3 292.7 L331.5 282.1 L335.6 270.5 L338.8 258 L341 244.8 L342.1 231.1 L342.3 217.2 L341.6 203.1 L340 189.2 L337.5 175.6 L334.3 162.4 L330.3 150 L325.6 138.4 L320.4 127.8 L314.6 118.3 L308.4 110.1 L301.8 103.2 L294.9 97.8 L287.7 93.9 L280.4 91.5 L273 90.7 L265.5 91.3 L258.1 93.5 L250.7 97.1 L243.5 102.1 L236.4 108.4 L229.6 115.7 L223 124.1 L216.6 133.4 L210.6 143.4 L204.8 153.9 L199.4 164.8 L194.3 175.9 L189.5 186.9 L185 197.8 L180.8 208.3 L176.9 218.4 L173.3 227.7 L169.9 236.2 L166.8 243.7 L163.9 250.1 L161.2 255.3 L158.8 259.3 L156.5 261.9 L154.3 263.1 L152.3 262.9 L150.5 261.4 L148.8 258.4 L147.3 254.1 L145.9 248.6 L144.6 241.9 L143.5 234.1 L142.6 225.4 L141.8 215.9 L141.3 205.7 L141 195.1 L140.9 184.1 L141.2 173 L141.7 161.9 L142.6 151 L143.8 140.6 L145.5 130.7 L147.6 121.6 L150.1 113.4 L153.1 106.2 L156.5 100.1 L160.5 95.4 L165 92.1 L170 90.1 L175.6 89.7 L181.6 90.9 L188.1 93.5 L195.2 97.7 L202.6 103.4 L210.5 110.4 L218.8 118.9 L227.3 128.5 L236.2 139.3 L245.2 151 L254.4 163.6 L263.7 176.8 L272.9 190.4 L282 204.4 L291 218.4 L299.7 232.3 L308 245.8 L316 258.9 L323.3 271.2 L330.1 282.7 L336.2 293.1 L341.5 302.3 L346 310.1 L349.5 316.4 L352.1 321.2 L353.7 324.2 L354.2 325.6 L353.7 325.1 L352 322.9 L349.2 318.9 L345.3 313.2 L340.3 305.7 L334.2 296.7 L327 286.2 L318.9 274.3 L309.8 261.2 L299.8 247.1 L289 232 L277.5 216.3 L265.3 200.1 L252.7 183.6 L239.6 167.1 L226.3 150.7 L212.8 134.6 L199.2 119.2 L185.7 104.5 L172.4 90.8 L159.4 78.3 L146.8 67 L134.9 57.3 L123.5 49.1 L113 42.6 L103.3 37.9 L94.6 35.1 L87 34.1 L80.4 35 L75.1 37.9 L70.9 42.5 L68.1 49 L66.5 57.1 L66.2 66.8 L67.2 78 L69.5 90.5 L73.1 104.1 L77.8 118.7 L83.7 134 L90.8 150 L98.8 166.2 L107.8 182.6 L117.6 199 L128.2 215 L139.5 230.6 L151.3 245.4 L163.5 259.4 L176 272.4 L188.7 284.1 L201.5 294.5 L214.2 303.4 L226.8 310.7 L239.1 316.3 L251.1 320.2 L262.5 322.4 L273.5 322.8 L283.7 321.5 L293.3 318.4 L302 313.7 L310 307.5 L317 299.8 L323.1 290.7 L328.2 280.5 L332.3 269.3 L335.5 257.2 L337.7 244.4 L338.9 231.1 L339.2 217.5 L338.5 203.8 L337 190.2 L334.7 176.9 L331.6 164.1 L327.7 151.9 L323.3 140.5 L318.2 130.1 L312.6 120.8 L306.6 112.7 L300.2 105.9 L293.4 100.5 L286.5 96.6 L279.4 94.2 L272.2 93.2 L264.9 93.8 L257.7 95.8 L250.5 99.2 L243.4 103.9 L236.5 109.9 L229.9 117 L223.4 125.1 L217.2 134.1 L211.3 143.8 L205.7 154 L200.3 164.5 L195.3 175.3 L190.6 186.1 L186.2 196.7 L182.1 207 L178.3 216.8 L174.8 225.9 L171.5 234.3 L168.4 241.7 L165.6 248 L163 253.2 L160.5 257.2 L158.3 259.8 L156.2 261.1 L154.2 261.1 L152.4 259.6 L150.8 256.9 L149.3 252.8 L147.9 247.5 L146.6 241.1 L145.6 233.6 L144.6 225.1 L143.9 215.9 L143.4 206.1 L143.1 195.7 L143 185 L143.2 174.2 L143.7 163.4 L144.5 152.8 L145.7 142.6 L147.3 132.9 L149.3 124 L151.7 115.9 L154.5 108.8 L157.9 102.9 L161.7 98.1 L166.1 94.8 L170.9 92.8 L176.3 92.3 L182.1 93.2 L188.4 95.7 L195.2 99.7 L202.5 105.1 L210.1 111.9 L218.1 120 L226.5 129.3 L235 139.7 L243.8 151.1 L252.8 163.2 L261.8 176 L270.8 189.3 L279.7 202.9 L288.5 216.5 L296.9 230 L305.1 243.3 L312.8 256.1 L320.1 268.1 L326.7 279.4 L332.7 289.6 L337.9 298.6 L342.4 306.4 L345.9 312.7 L348.5 317.4 L350.1 320.5 L350.7 322 L350.3 321.7 L348.7 319.6 L346.1 315.9 L342.4 310.4 L337.6 303.3 L331.7 294.6 L324.8 284.5 L316.9 273 L308.1 260.4 L298.5 246.7 L288 232.1 L276.9 216.8 L265.1 201.1 L252.8 185 L240.1 168.9 L227.2 152.9 L214 137.3 L200.8 122.2 L187.6 107.8 L174.6 94.4 L162 82 L149.7 71 L138 61.4 L126.9 53.3 L116.6 46.8 L107.1 42.1 L98.5 39.2 L91 38.1 L84.5 38.9 L79.2 41.5 L75.1 45.9 L72.2 52 L70.6 59.8 L70.2 69.2 L71.1 80 L73.2 92 L76.6 105.2 L81.1 119.3 L86.8 134.2 L93.5 149.7 L101.3 165.5 L110 181.5 L119.5 197.4 L129.8 213.1 L140.7 228.3 L152.1 242.8 L164 256.5 L176.1 269.2 L188.5 280.7 L200.9 291 L213.4 299.7 L225.6 307 L237.7 312.6 L249.3 316.5 L260.6 318.8 L271.2 319.3 L281.3 318.2 L290.7 315.3 L299.2 310.9 L307 304.9 L313.9 297.5 L319.9 288.8 L325 278.9 L329.1 268.1 L332.3 256.3 L334.5 243.9 L335.7 231 L336.1 217.8 L335.5 204.5 L334.1 191.2 L331.9 178.3 L328.9 165.7 L325.2 153.8 L320.9 142.6 L316 132.4 L310.6 123.2 L304.8 115.3 L298.6 108.5 L292.1 103.2 L285.3 99.2 L278.4 96.7 L271.3 95.7 L264.3 96.1 L257.2 98 L250.2 101.2 L243.4 105.7 L236.6 111.4 L230.1 118.3 L223.8 126.1 L217.7 134.8 L211.9 144.1 L206.4 154 L201.2 164.3 L196.3 174.8 L191.7 185.3 L187.4 195.7 L183.4 205.7 L179.7 215.3 L176.2 224.3 L173 232.5 L170 239.7 L167.2 246 L164.6 251.2 L162.2 255.1 L160 257.8 L158 259.2 L156.1 259.2 L154.3 257.9 L152.7 255.3 L151.2 251.5 L149.9 246.4 L148.6 240.2 L147.6 233 L146.7 224.9 L145.9 215.9 L145.4 206.4 L145.1 196.3 L145 186 L145.1 175.4 L145.6 164.9 L146.4 154.6 L147.5 144.6 L149 135.1 L150.9 126.3 L153.2 118.4 L156 111.4 L159.2 105.5 L162.9 100.8 L167.1 97.4 L171.8 95.4 L176.9 94.8 L182.6 95.6 L188.7 97.9 L195.3 101.6 L202.3 106.8 L209.8 113.3 L217.5 121.1 L225.6 130.1 L234 140.1 L242.5 151.1 L251.2 162.9 L260 175.3 L268.8 188.2 L277.4 201.4 L286 214.7 L294.3 227.9 L302.3 240.8 L309.8 253.3 L316.9 265.1 L323.4 276.2 L329.3 286.2 L334.5 295.1 L338.8 302.7 L342.4 309 L345 313.7 L346.6 316.9 L347.3 318.4 L346.9 318.3 L345.5 316.4 L343 312.9 L339.5 307.7 L334.9 300.9 L329.3 292.6 L322.6 282.8 L315.1 271.8 L306.6 259.5 L297.2 246.2 L287.1 232.1 L276.3 217.3 L264.9 202 L252.9 186.3 L240.6 170.6 L228 155.1 L215.2 139.8 L202.3 125 L189.5 111 L176.8 97.8 L164.4 85.7 L152.4 74.9 L141 65.4 L130.1 57.4 L120 50.9 L110.7 46.2 L102.3 43.2 L94.9 42.1 L88.5 42.7 L83.2 45 L79.1 49.2 L76.2 55 L74.5 62.5 L74.1 71.5 L74.8 81.9 L76.8 93.5 L80 106.3 L84.3 120 L89.8 134.5 L96.3 149.5 L103.7 164.9 L112.1 180.4 L121.3 195.9 L131.3 211.2 L141.8 226.1 L152.9 240.3 L164.5 253.7 L176.3 266.2 L188.3 277.5 L200.5 287.5 L212.6 296.2 L224.5 303.4 L236.3 309 L247.7 313 L258.6 315.3 L269.1 315.9 L278.9 314.9 L288.1 312.3 L296.5 308.1 L304.2 302.4 L311 295.3 L316.9 286.9 L321.9 277.4 L326 266.9 L329.1 255.5 L331.3 243.4 L332.6 230.9 L333 218.1 L332.6 205.1 L331.3 192.2 L329.2 179.5 L326.3 167.2 L322.8 155.6 L318.6 144.6 L313.9 134.6 L308.7 125.6 L303 117.7 L297 111.1 L290.7 105.8 L284.1 101.8 L277.4 99.3 L270.5 98.1 L263.7 98.4 L256.8 100.1 L250 103.1 L243.3 107.5 L236.7 112.9 L230.3 119.5 L224.2 127.1 L218.2 135.5 L212.6 144.5 L207.2 154.1 L202.1 164.1 L197.3 174.3 L192.8 184.6 L188.6 194.7 L184.6 204.5 L181 213.9 L177.6 222.7 L174.4 230.7 L171.5 237.9 L168.8 244.1 L166.2 249.2 L163.9 253.1 L161.7 255.8 L159.7 257.3 L157.9 257.4 L156.2 256.3 L154.6 253.8 L153.1 250.2 L151.8 245.3 L150.6 239.4 L149.5 232.4 L148.6 224.6 L147.9 215.9 L147.3 206.7 L147 196.9 L146.9 186.8 L147.1 176.6 L147.5 166.3 L148.2 156.2 L149.3 146.5 L150.7 137.2 L152.5 128.6 L154.8 120.8 L157.4 113.9 L160.5 108.1 L164.1 103.4 L168.1 100 L172.6 97.9 L177.6 97.2 L183.1 97.9 L189 100 L195.4 103.5 L202.2 108.4 L209.4 114.7 L217 122.2 L224.8 130.8 L232.9 140.5 L241.3 151.2 L249.7 162.6 L258.3 174.7 L266.8 187.2 L275.3 200 L283.6 213 L291.7 225.9 L299.5 238.5 L306.9 250.7 L313.9 262.2 L320.3 273 L326 282.9 L331.1 291.7 L335.4 299.2 L338.9 305.4 L341.5 310.1 L343.2 313.3 L344 315 L343.7 315 L342.4 313.3 L340.1 310 L336.7 305.1 L332.3 298.6 L326.9 290.6 L320.5 281.2 L313.2 270.5 L305 258.6 L295.9 245.8 L286.1 232.1 L275.7 217.7 L264.6 202.8 L253 187.6 L241 172.3 L228.7 157.1 L216.3 142.2 L203.7 127.8 L191.2 114 L178.9 101.2 L166.8 89.3 L155.1 78.6 L143.9 69.2 L133.3 61.3 L123.4 55 L114.2 50.2 L106 47.2 L98.7 45.9 L92.4 46.3 L87.2 48.5 L83.1 52.4 L80.1 58 L78.4 65.1 L77.8 73.8 L78.5 83.8 L80.3 95.1 L83.3 107.4 L87.5 120.7 L92.7 134.7 L98.9 149.3 L106.1 164.3 L114.2 179.4 L123.1 194.5 L132.8 209.5 L143 224 L153.8 237.9 L165 251 L176.5 263.2 L188.2 274.3 L200 284.2 L211.8 292.8 L223.5 299.9 L234.9 305.4 L246.1 309.4 L256.8 311.8 L267 312.6 L276.6 311.7 L285.6 309.3 L293.9 305.3 L301.4 299.9 L308.1 293.1 L313.9 285 L318.9 275.8 L322.9 265.6 L326 254.6 L328.3 243 L329.6 230.8 L330.1 218.3 L329.7 205.7 L328.5 193.1 L326.5 180.7 L323.8 168.7 L320.4 157.3 L316.4 146.6 L311.8 136.8 L306.8 127.9 L301.3 120.1 L295.5 113.6 L289.3 108.3 L282.9 104.3 L276.4 101.7 L269.7 100.5 L263 100.7 L256.3 102.2 L249.7 105.1 L243.2 109.2 L236.8 114.4 L230.5 120.8 L224.5 128.1 L218.7 136.2 L213.2 144.9 L207.9 154.3 L202.9 164 L198.2 173.9 L193.8 183.9 L189.7 193.7 L185.8 203.3 L182.3 212.5 L178.9 221.1 L175.8 229 L172.9 236.1 L170.3 242.2 L167.8 247.2 L165.5 251.1 L163.4 253.9 L161.4 255.4 L159.6 255.6 L157.9 254.6 L156.4 252.4 L154.9 248.9 L153.6 244.2 L152.5 238.5 L151.4 231.8 L150.5 224.2 L149.8 215.9 L149.3 206.9 L148.9 197.4 L148.8 187.6 L148.9 177.7 L149.3 167.7 L150 157.8 L151 148.3 L152.4 139.2 L154.1 130.8 L156.3 123.1 L158.8 116.3 L161.8 110.6 L165.2 105.9 L169.1 102.5 L173.5 100.4 L178.3 99.6 L183.6 100.1 L189.4 102.1 L195.5 105.4 L202.1 110.1 L209.1 116.1 L216.4 123.3 L224.1 131.6 L231.9 141 L240 151.3 L248.3 162.4 L256.6 174.1 L264.9 186.2 L273.2 198.7 L281.3 211.3 L289.2 223.9 L296.8 236.2 L304.1 248.1 L310.9 259.4 L317.2 270 L322.8 279.7 L327.8 288.3 L332.1 295.8 L335.6 301.9 L338.2 306.6 L339.9 309.9 L340.7 311.6 L340.5 311.7 L339.3 310.2 L337.1 307.1 L333.9 302.4 L329.7 296.2 L324.5 288.6 L318.4 279.5 L311.3 269.2 L303.4 257.8 L294.7 245.3 L285.2 232 L275 218 L264.3 203.6 L253 188.8 L241.4 173.9 L229.5 159.1 L217.3 144.5 L205.1 130.5 L192.9 117 L180.9 104.4 L169.1 92.7 L157.7 82.2 L146.7 73 L136.3 65.2 L126.6 58.9 L117.6 54.1 L109.5 51 L102.3 49.6 L96.1 49.9 L91 51.9 L86.9 55.6 L83.9 60.9 L82.2 67.7 L81.5 76 L82.1 85.7 L83.8 96.6 L86.6 108.5 L90.5 121.4 L95.5 135 L101.5 149.2 L108.5 163.7 L116.3 178.5 L124.9 193.2 L134.3 207.8 L144.2 221.9 L154.7 235.5 L165.5 248.4 L176.7 260.3 L188.1 271.3 L199.6 281 L211.1 289.4 L222.5 296.5 L233.6 302 L244.5 306 L255 308.5 L265 309.4 L274.4 308.7 L283.2 306.4 L291.3 302.6 L298.7 297.5 L305.3 290.9 L311 283.2 L315.9 274.3 L319.9 264.4 L323.1 253.8 L325.3 242.5 L326.7 230.6 L327.2 218.5 L326.9 206.2 L325.8 193.9 L323.9 181.8 L321.3 170.1 L318.1 159 L314.2 148.5 L309.8 138.8 L304.9 130.1 L299.6 122.5 L294 116 L288 110.7 L281.8 106.8 L275.4 104.1 L269 102.8 L262.4 102.9 L255.9 104.3 L249.4 107 L243 110.9 L236.8 115.9 L230.7 122 L224.8 129 L219.2 136.9 L213.8 145.4 L208.6 154.4 L203.8 163.8 L199.2 173.5 L194.8 183.2 L190.8 192.8 L187 202.2 L183.5 211.2 L180.2 219.6 L177.2 227.4 L174.4 234.3 L171.8 240.3 L169.4 245.3 L167.1 249.2 L165 252 L163.1 253.6 L161.3 253.9 L159.7 253 L158.1 250.9 L156.7 247.6 L155.4 243.2 L154.3 237.7 L153.3 231.2 L152.4 223.9 L151.7 215.8 L151.1 207.1 L150.8 198 L150.6 188.4 L150.7 178.7 L151.1 169 L151.8 159.4 L152.7 150.1 L154 141.2 L155.7 132.9 L157.7 125.4 L160.2 118.7 L163.1 113 L166.4 108.4 L170.1 104.9 L174.3 102.8 L179 101.9 L184.1 102.3 L189.7 104.1 L195.7 107.3 L202.1 111.7 L208.8 117.4 L215.9 124.3 L223.3 132.4 L231 141.5 L238.9 151.4 L246.9 162.2 L255 173.5 L263.1 185.3 L271.1 197.5 L279.1 209.7 L286.8 222 L294.2 234 L301.3 245.6 L308 256.7 L314.1 267.1 L319.7 276.6 L324.6 285.1 L328.9 292.4 L332.3 298.5 L334.9 303.2 L336.7 306.5 L337.5 308.3 L337.4 308.5 L336.3 307.2 L334.3 304.3 L331.2 299.9 L327.2 294 L322.2 286.6 L316.3 277.9 L309.5 267.9 L301.9 256.9 L293.4 244.8 L284.2 231.9 L274.4 218.4 L264 204.3 L253.1 189.9 L241.7 175.4 L230.1 161 L218.3 146.8 L206.4 133 L194.6 119.9 L182.8 107.5 L171.3 96.1 L160.2 85.8 L149.4 76.7 L139.3 68.9 L129.7 62.7 L121 57.9 L113 54.8 L105.9 53.3 L99.8 53.4 L94.7 55.3 L90.6 58.7 L87.7 63.7 L85.8 70.3 L85.1 78.3 L85.6 87.6 L87.1 98.1 L89.8 109.6 L93.6 122.1 L98.3 135.3 L104.1 149.1 L110.8 163.2 L118.4 177.6 L126.7 191.9 L135.7 206.1 L145.4 220 L155.5 233.3 L166.1 245.8 L177 257.6 L188 268.3 L199.2 277.9 L210.4 286.2 L221.5 293.1 L232.4 298.7 L243 302.7 L253.3 305.2 L263 306.2 L272.3 305.6 L280.9 303.5 L288.9 300 L296.1 295.1 L302.6 288.8 L308.2 281.3 L313.1 272.8 L317 263.3 L320.1 252.9 L322.4 241.9 L323.8 230.4 L324.4 218.6 L324.1 206.7 L323.1 194.7 L321.3 182.9 L318.9 171.5 L315.8 160.6 L312.1 150.3 L307.8 140.8 L303.1 132.3 L298 124.7 L292.5 118.3 L286.7 113.1 L280.7 109.1 L274.5 106.5 L268.2 105.1 L261.8 105.1 L255.5 106.3 L249.1 108.8 L242.9 112.5 L236.8 117.4 L230.9 123.2 L225.1 130 L219.6 137.6 L214.3 145.8 L209.3 154.6 L204.5 163.7 L200 173.1 L195.8 182.6 L191.8 192 L188.1 201.1 L184.7 209.9 L181.5 218.2 L178.5 225.8 L175.8 232.6 L173.2 238.5 L170.8 243.5 L168.6 247.4 L166.6 250.2 L164.7 251.8 L163 252.2 L161.3 251.4 L159.8 249.5 L158.5 246.4 L157.2 242.1 L156.1 236.9 L155.1 230.7 L154.2 223.6 L153.5 215.8 L152.9 207.3 L152.6 198.4 L152.4 189.2 L152.5 179.7 L152.9 170.2 L153.5 160.9 L154.4 151.7 L155.6 143.1 L157.2 135 L159.2 127.5 L161.5 121 L164.3 115.3 L167.5 110.8 L171.1 107.3 L175.2 105.1 L179.7 104.1 L184.6 104.5 L190 106.1 L195.8 109.1 L202 113.3 L208.6 118.8 L215.5 125.4 L222.7 133.2 L230.1 141.9 L237.7 151.6 L245.5 162 L253.4 173 L261.3 184.5 L269.2 196.3 L276.9 208.2 L284.4 220.2 L291.7 231.9 L298.7 243.3 L305.2 254.1 L311.2 264.3 L316.7 273.6 L321.6 281.9 L325.7 289.2 L329.1 295.2 L331.8 299.9 L333.5 303.2 L334.4 305.1 L334.4 305.4 L333.4 304.3 L331.5 301.6 L328.6 297.4 L324.8 291.7 L320 284.7 L314.3 276.3 L307.7 266.7 L300.4 256 L292.2 244.3 L283.3 231.8 L273.7 218.6 L263.6 205 L253 191 L242.1 176.9 L230.8 162.8 L219.3 149 L207.7 135.5 L196.1 122.6 L184.7 110.5 L173.5 99.3 L162.5 89.2 L152.1 80.2 L142.1 72.6 L132.8 66.4 L124.2 61.6 L116.3 58.4 L109.4 56.8 L103.3 56.9 L98.3 58.5 L94.3 61.8 L91.3 66.5 L89.4 72.8 L88.6 80.5 L89 89.4 L90.4 99.6 L92.9 110.7 L96.5 122.8 L101.1 135.6 L106.6 149 L113.1 162.8 L120.4 176.7 L128.5 190.7 L137.2 204.6 L146.5 218.1 L156.4 231.1 L166.6 243.4 L177.2 254.9 L188 265.4 L198.9 274.8 L209.8 283 L220.6 289.9 L231.3 295.4 L241.6 299.5 L251.6 302 L261.2 303.1 L270.2 302.7 L278.7 300.7 L286.5 297.4 L293.6 292.7 L299.9 286.7 L305.5 279.5 L310.3 271.3 L314.2 262.1 L317.3 252.1 L319.6 241.4 L321 230.2 L321.6 218.8 L321.4 207.1 L320.5 195.4 L318.8 184 L316.5 172.8 L313.5 162.1 L310 152 L305.9 142.8 L301.3 134.3 L296.3 126.9 L291 120.6 L285.4 115.4 L279.5 111.4 L273.5 108.8 L267.4 107.3 L261.2 107.2 L255 108.3 L248.9 110.7 L242.8 114.2 L236.8 118.8 L231 124.4 L225.4 130.9 L220 138.3 L214.9 146.2 L209.9 154.8 L205.3 163.6 L200.9 172.8 L196.7 182 L192.9 191.1 L189.2 200.1 L185.9 208.7 L182.7 216.8 L179.8 224.2 L177.1 230.9 L174.6 236.8 L172.3 241.7 L170.1 245.6 L168.1 248.4 L166.3 250 L164.6 250.5 L163 249.9 L161.5 248.1 L160.2 245.1 L158.9 241.1 L157.8 236 L156.8 230.1 L156 223.2 L155.3 215.7 L154.7 207.5 L154.3 198.9 L154.2 189.9 L154.2 180.7 L154.6 171.4 L155.1 162.3 L156 153.4 L157.2 144.9 L158.7 136.9 L160.6 129.7 L162.8 123.2 L165.5 117.6 L168.6 113.1 L172.1 109.7 L176 107.4 L180.4 106.4 L185.1 106.6 L190.3 108.1 L196 110.8 L202 114.9 L208.3 120.1 L215 126.5 L222 134 L229.2 142.4 L236.7 151.7 L244.2 161.8 L251.9 172.5 L259.6 183.7 L267.3 195.1 L274.8 206.8 L282.2 218.4 L289.3 229.8 L296.1 241 L302.5 251.6 L308.4 261.5 L313.8 270.7 L318.5 278.9 L322.7 286 L326 292 L328.7 296.7 L330.4 300 L331.4 301.9 L331.4 302.4 L330.5 301.4 L328.7 298.9 L326 294.9 L322.4 289.5 L317.8 282.7 L312.3 274.7 L306 265.4 L298.8 255.1 L290.9 243.8 L282.3 231.7 L273.1 218.9 L263.3 205.6 L253 192 L242.3 178.3 L231.4 164.6 L220.2 151 L208.9 137.9 L197.6 125.3 L186.5 113.5 L175.5 102.5 L164.9 92.5 L154.6 83.7 L144.9 76.1 L135.8 70 L127.3 65.2 L119.6 62 L112.8 60.3 L106.8 60.2 L101.8 61.7 L97.8 64.7 L94.8 69.3 L92.9 75.3 L92.1 82.6 L92.3 91.3 L93.6 101 L96 111.9 L99.4 123.6 L103.8 136 L109.1 149 L115.3 162.3 L122.4 175.9 L130.2 189.6 L138.6 203.1 L147.7 216.3 L157.3 229 L167.2 241 L177.5 252.3 L188 262.6 L198.6 271.9 L209.2 280 L219.8 286.8 L230.1 292.2 L240.2 296.3 L250 298.9 L259.4 300.1 L268.2 299.8 L276.5 298 L284.1 294.9 L291.1 290.4 L297.4 284.6 L302.9 277.7 L307.6 269.8 L311.5 260.9 L314.6 251.2 L316.8 240.9 L318.3 230 L318.9 218.9 L318.8 207.5 L318 196.2 L316.4 184.9 L314.2 174 L311.3 163.6 L307.9 153.7 L303.9 144.6 L299.5 136.4 L294.7 129 L289.6 122.8 L284.1 117.7 L278.4 113.7 L272.6 111 L266.6 109.5 L260.6 109.3 L254.6 110.3 L248.6 112.5 L242.6 115.8 L236.8 120.2 L231.2 125.6 L225.7 131.9 L220.4 139 L215.4 146.7 L210.6 154.9 L206 163.6 L201.7 172.5 L197.6 181.4 L193.8 190.4 L190.3 199.1 L187 207.5 L183.9 215.4 L181.1 222.7 L178.4 229.3 L176 235.1 L173.7 239.9 L171.6 243.8 L169.6 246.6 L167.8 248.3 L166.1 248.9 L164.6 248.4 L163.1 246.7 L161.8 243.9 L160.6 240.1 L159.5 235.2 L158.5 229.5 L157.7 222.9 L157 215.6 L156.4 207.7 L156.1 199.3 L155.9 190.5 L155.9 181.6 L156.2 172.6 L156.7 163.7 L157.6 155 L158.7 146.7 L160.1 138.9 L161.9 131.7 L164.1 125.4 L166.7 119.9 L169.6 115.4 L173 111.9 L176.8 109.6 L181 108.5 L185.6 108.6 L190.7 110 L196.1 112.6 L201.9 116.4 L208.1 121.4 L214.6 127.6 L221.4 134.8 L228.4 142.9 L235.6 151.9 L243 161.7 L250.5 172.1 L258 182.9 L265.4 194.1 L272.8 205.4 L280 216.7 L286.9 227.9 L293.6 238.7 L299.8 249.1 L305.6 258.9 L310.9 267.9 L315.6 275.9 L319.7 283 L323 288.9 L325.6 293.6 L327.4 296.9 L328.4 298.9 L328.5 299.4 L327.8 298.6 L326.1 296.2 L323.5 292.5 L320 287.3 L315.6 280.8 L310.3 273.1 L304.3 264.2 L297.4 254.2 L289.7 243.2 L281.4 231.5 L272.4 219.1 L262.9 206.2 L252.9 193 L242.6 179.6 L231.9 166.2 L221 153 L210.1 140.2 L199.1 127.9 L188.2 116.3 L177.5 105.5 L167.1 95.7 L157.1 87.1 L147.6 79.6 L138.6 73.5 L130.3 68.7 L122.8 65.5 L116 63.7 L110.2 63.5 L105.2 64.8 L101.2 67.7 L98.3 72 L96.3 77.7 L95.4 84.8 L95.6 93.1 L96.8 102.5 L99 113 L102.2 124.3 L106.4 136.3 L111.5 149 L117.5 162 L124.3 175.2 L131.9 188.5 L140.1 201.6 L148.8 214.5 L158.1 226.9 L167.8 238.7 L177.8 249.8 L188 259.9 L198.3 269 L208.6 277 L218.9 283.7 L229.1 289.2 L238.9 293.2 L248.5 295.9 L257.6 297.1 L266.3 296.9 L274.4 295.3 L281.9 292.4 L288.7 288.1 L294.9 282.6 L300.3 276 L304.9 268.3 L308.8 259.7 L311.9 250.3 L314.1 240.3 L315.6 229.8 L316.3 218.9 L316.3 207.9 L315.5 196.8 L314 185.9 L311.9 175.2 L309.2 165 L305.9 155.4 L302.1 146.4 L297.8 138.3 L293.2 131.1 L288.1 124.9 L282.9 119.8 L277.3 115.9 L271.7 113.2 L265.9 111.6 L260 111.3 L254.1 112.2 L248.3 114.2 L242.5 117.4 L236.8 121.6 L231.3 126.8 L226 132.8 L220.8 139.7 L215.9 147.1 L211.2 155.1 L206.7 163.5 L202.5 172.2 L198.5 180.9 L194.8 189.6 L191.3 198.1 L188.1 206.3 L185.1 214.1 L182.3 221.3 L179.7 227.8 L177.3 233.4 L175.1 238.3 L173 242.1 L171.1 244.9 L169.3 246.7 L167.6 247.3 L166.1 246.9 L164.7 245.3 L163.4 242.7 L162.2 239 L161.1 234.4 L160.2 228.9 L159.3 222.5 L158.7 215.4 L158.1 207.8 L157.7 199.6 L157.6 191.1 L157.6 182.4 L157.8 173.7 L158.3 165 L159.1 156.5 L160.2 148.4 L161.6 140.7 L163.3 133.7 L165.4 127.5 L167.8 122 L170.7 117.6 L173.9 114.1 L177.6 111.8 L181.7 110.6 L186.2 110.7 L191 111.9 L196.3 114.3 L201.9 118 L207.9 122.7 L214.2 128.6 L220.8 135.6 L227.6 143.4 L234.7 152.2 L241.8 161.6 L249.1 171.7 L256.4 182.2 L263.7 193 L270.8 204.1 L277.8 215.1 L284.6 226 L291.1 236.6 L297.3 246.7 L302.9 256.3 L308.1 265.1 L312.8 273 L316.8 280 L320.1 285.8 L322.7 290.5 L324.5 293.9 L325.5 295.9 L325.7 296.6 L325 295.8 L323.5 293.7 L321 290.1 L317.7 285.2 L313.5 279 L308.4 271.5 L302.5 262.9 L295.9 253.3 L288.5 242.7 L280.4 231.3 L271.8 219.3 L262.5 206.8 L252.9 193.9 L242.8 180.9 L232.4 167.8 L221.8 155 L211.2 142.4 L200.5 130.4 L189.8 119 L179.4 108.5 L169.3 98.9 L159.5 90.3 L150.2 83 L141.4 76.9 L133.3 72.2 L125.9 68.9 L119.2 67.1 L113.4 66.7 L108.5 67.9 L104.6 70.5 L101.6 74.6 L99.6 80.1 L98.7 86.8 L98.7 94.9 L99.8 104 L101.9 114.1 L105 125.1 L109 136.7 L113.9 149 L119.7 161.6 L126.3 174.5 L133.5 187.4 L141.5 200.3 L150 212.8 L159 225 L168.4 236.5 L178.1 247.3 L188 257.3 L198 266.2 L208.1 274.1 L218.2 280.8 L228 286.1 L237.7 290.2 L247 292.9 L255.9 294.2 L264.4 294.2 L272.3 292.7 L279.7 289.9 L286.4 285.9 L292.5 280.6 L297.8 274.2 L302.4 266.8 L306.2 258.5 L309.3 249.5 L311.5 239.7 L313 229.5 L313.8 219 L313.8 208.2 L313.1 197.5 L311.7 186.8 L309.7 176.4 L307.1 166.4 L303.9 157 L300.2 148.2 L296.1 140.2 L291.6 133.1 L286.8 127 L281.6 122 L276.3 118.1 L270.8 115.3 L265.1 113.7 L259.4 113.3 L253.7 114 L248 115.9 L242.3 118.9 L236.8 123 L231.4 127.9 L226.2 133.8 L221.2 140.4 L216.3 147.6 L211.7 155.4 L207.4 163.5 L203.2 171.9 L199.4 180.4 L195.7 188.9 L192.3 197.2 L189.1 205.2 L186.2 212.8 L183.5 219.9 L180.9 226.2 L178.6 231.9 L176.4 236.6 L174.4 240.4 L172.5 243.3 L170.7 245 L169.1 245.8 L167.6 245.4 L166.2 244 L165 241.5 L163.8 238 L162.7 233.6 L161.8 228.3 L161 222.1 L160.3 215.3 L159.7 207.9 L159.4 200 L159.2 191.7 L159.2 183.3 L159.4 174.7 L159.9 166.2 L160.6 158 L161.6 150 L163 142.5 L164.6 135.7 L166.6 129.5 L169 124.1 L171.7 119.7 L174.9 116.3 L178.4 113.9 L182.3 112.7 L186.7 112.6 L191.4 113.7 L196.5 116 L201.9 119.5 L207.7 124 L213.9 129.7 L220.2 136.4 L226.9 144 L233.7 152.4 L240.7 161.5 L247.8 171.3 L254.9 181.5 L261.9 192.1 L268.9 202.8 L275.8 213.5 L282.4 224.2 L288.8 234.5 L294.8 244.4 L300.3 253.8 L305.4 262.4 L310 270.3 L314 277.1 L317.2 282.9 L319.8 287.5 L321.7 290.9 L322.7 293 L323 293.7 L322.4 293.1 L320.9 291.1 L318.6 287.8 L315.4 283.1 L311.4 277.1 L306.5 270 L300.9 261.7 L294.4 252.3 L287.3 242.1 L279.5 231.1 L271.1 219.4 L262.2 207.3 L252.8 194.7 L243 182.1 L232.9 169.4 L222.6 156.8 L212.2 144.6 L201.8 132.8 L191.4 121.7 L181.3 111.3 L171.3 101.9 L161.8 93.5 L152.7 86.2 L144.1 80.2 L136.1 75.5 L128.8 72.2 L122.3 70.3 L116.6 69.9 L111.8 70.9 L107.8 73.3 L104.9 77.2 L102.9 82.4 L101.9 88.9 L101.8 96.6 L102.8 105.4 L104.8 115.2 L107.7 125.8 L111.5 137.1 L116.3 149 L121.8 161.3 L128.1 173.9 L135.2 186.5 L142.9 199 L151.1 211.2 L159.8 223.1 L169 234.4 L178.4 245 L188 254.7 L197.8 263.5 L207.6 271.3 L217.4 277.9 L227 283.2 L236.5 287.3 L245.6 290 L254.3 291.4 L262.6 291.5 L270.4 290.2 L277.6 287.6 L284.2 283.7 L290.1 278.7 L295.4 272.5 L299.9 265.4 L303.7 257.4 L306.7 248.6 L309 239.2 L310.5 229.3 L311.3 219 L311.4 208.5 L310.7 198 L309.4 187.6 L307.5 177.5 L305 167.7 L302 158.5 L298.4 149.9 L294.5 142 L290.1 135.1 L285.4 129 L280.4 124.1 L275.2 120.1 L269.9 117.3 L264.4 115.7 L258.8 115.2 L253.2 115.9 L247.7 117.6 L242.2 120.5 L236.8 124.3 L231.5 129.1 L226.4 134.7 L221.5 141.1 L216.8 148.1 L212.3 155.6 L208 163.5 L204 171.7 L200.2 180 L196.6 188.2 L193.3 196.4 L190.2 204.2 L187.3 211.6 L184.6 218.5 L182.1 224.8 L179.8 230.3 L177.7 235 L175.7 238.8 L173.8 241.6 L172.1 243.5 L170.6 244.3 L169.1 244 L167.7 242.7 L166.5 240.4 L165.3 237 L164.3 232.8 L163.4 227.7 L162.6 221.7 L161.9 215.1 L161.3 208 L161 200.3 L160.8 192.3 L160.7 184.1 L160.9 175.7 L161.4 167.5 L162.1 159.4 L163 151.6 L164.3 144.3 L165.9 137.5 L167.8 131.5 L170.1 126.2 L172.7 121.8 L175.8 118.4 L179.2 116 L183 114.7 L187.2 114.6 L191.7 115.5 L196.7 117.7 L202 120.9 L207.6 125.3 L213.5 130.7 L219.7 137.2 L226.2 144.5 L232.8 152.6 L239.6 161.5 L246.5 171 L253.4 180.9 L260.3 191.1 L267.1 201.6 L273.8 212 L280.3 222.4 L286.5 232.5 L292.4 242.2 L297.8 251.4 L302.8 259.9 L307.3 267.5 L311.2 274.3 L314.5 280 L317 284.6 L318.9 288 L320 290.1 L320.3 291 L319.8 290.5 L318.4 288.6 L316.2 285.5 L313.2 281 L309.3 275.3 L304.7 268.4 L299.2 260.4 L293 251.4 L286.1 241.5 L278.6 230.8 L270.4 219.5 L261.8 207.7 L252.6 195.6 L243.1 183.2 L233.3 170.8 L223.3 158.6 L213.2 146.6 L203 135.2 L193 124.3 L183 114.1 L173.4 104.8 L164 96.6 L155.1 89.4 L146.7 83.4 L138.9 78.7 L131.7 75.4 L125.3 73.5 L119.7 72.9 L114.9 73.8 L111 76.1 L108.1 79.7 L106 84.7 L105 90.9 L104.9 98.4 L105.8 106.9 L107.6 116.3 L110.4 126.6 L114 137.6 L118.6 149.1 L123.9 161.1 L130 173.2 L136.8 185.5 L144.3 197.7 L152.2 209.7 L160.7 221.3 L169.6 232.3 L178.7 242.7 L188.1 252.3 L197.6 260.9 L207.2 268.6 L216.7 275.1 L226.1 280.4 L235.3 284.4 L244.2 287.2 L252.7 288.7 L260.8 288.8 L268.5 287.6 L275.5 285.2 L282 281.5 L287.9 276.7 L293 270.8" fill="none"/>
  <use href="#curve" stroke="#0e0f12" stroke-width="4" filter="url(#soft)" opacity=".8"/>
  <use href="#curve" class="draw" stroke="url(#thread)" stroke-width="1.05" stroke-linecap="round" stroke-linejoin="round"/>

  <!-- luminous point tracing the curve -->
  <g class="glow">
    <circle r="2.6" fill="#ffffff" filter="url(#tip)">
      <animateMotion dur="9s" repeatCount="indefinite" rotate="auto" calcMode="linear">
        <mpath href="#curve"/>
      </animateMotion>
    </circle>
  </g>

  <!-- instrument type, right -->
  <g transform="translate(500,0)">
    <text x="0" y="120" class="mono fade f1" fill="#5c616b" font-size="11" letter-spacing="4">HARMONOGRAPH  ·  NO.01</text>

    <text x="-2" y="176" class="serif fade f2" fill="#eef1f5" font-size="52" letter-spacing="1">Matheus Pavaneli<tspan class="caret" fill="#eef1f5" dx="4" font-size="46">|</tspan></text>

    <line x1="0" y1="196" x2="210" y2="196" class="rule" stroke="#40444c" stroke-width="1"/>

    <text x="0" y="232" class="mono fade f3" fill="#aeb4bd" font-size="14" letter-spacing="1">senior fullstack engineer</text>
    <text x="0" y="258" class="mono fade f4" fill="#6b7079" font-size="12.5" letter-spacing=".3">building systems that stay up &#8212; queues, events, uptime.</text>

    <text x="0" y="316" class="mono fade f5" fill="#4a4f57" font-size="11" letter-spacing="3">PRODUCTIVITY ABOVE ALL</text>
  </g>
</svg>
